<svg height="496pt" viewBox="0 0 496 496" width="496pt" xmlns="http://www.w3.org/2000/svg"><path d="m463 0c-6.039062 0-11.96875 1.65625-17.128906 4.792969l-72.894532 44.253906c-34.113281-31.597656-78.402343-49.046875-124.976562-49.046875-101.457031 0-184 82.542969-184 184 0 16.527344 2.3125 32.832031 6.632812 48.617188l-46.265624 28.085937c-15.03125 9.128906-24.367188 25.710937-24.367188 43.296875 0 13.230469 10.769531 24 24 24s24-10.769531 24-24v-3.289062l41.65625-23.054688c33.046875 55.757812 93.511719 90.34375 158.34375 90.34375 7.496094 0 14.871094-.503906 22.136719-1.375 3.175781.808594 6.4375 1.375 9.863281 1.375h104c13.230469 0 24 10.769531 24 24s-10.769531 24-24 24h-224c-22.054688 0-40 17.945312-40 40s17.945312 40 40 40h232v-16h-232c-13.230469 0-24-10.769531-24-24s10.769531-24 24-24h224c22.054688 0 40-17.945312 40-40s-17.945312-40-40-40h-61.097656c64.21875-28.742188 109.097656-93.207031 109.097656-168 0-29.472656-7.144531-58.472656-20.585938-84.464844l67.5625-37.398437c10.503907-5.808594 17.023438-16.871094 17.023438-29.136719 0-18.191406-14.808594-33-33-33zm-55 193.238281 7.320312 4.226563c-.695312 8.671875-2.074218 17.128906-4.03125 25.382812l-27.289062-15.75zm-40 23.097657 38.6875 22.335937c-2.648438 7.671875-5.800781 15.105469-9.488281 22.230469l-53.199219-30.71875zm-72 128.59375v-321.929688c8.246094 2.457031 16.230469 5.648438 24 9.335938v303.230468c-7.71875 3.671875-15.695312 6.875-24 9.363282zm40-26.984376v-27.714843l27.214844 15.714843c-6.214844 5.878907-12.824219 11.34375-19.878906 16.230469zm0-46.191406v-27.714844l53.167969 30.695313c-4.382813 6.800781-9.246094 13.234375-14.535157 19.3125zm0-221.699218 7.304688-4.214844c5.296874 3.664062 10.398437 7.640625 15.296874 11.9375l-22.601562 13.71875zm-248 124.707031-7.320312-4.226563c.695312-8.671875 2.074218-17.128906 4.03125-25.382812l27.289062 15.75zm40-23.097657-38.6875-22.335937c2.648438-7.671875 5.800781-15.105469 9.488281-22.230469l53.199219 30.71875zm32-101.609374v27.714843l-27.214844-15.714843c6.214844-5.878907 12.824219-11.34375 19.878906-16.230469zm0 46.191406v27.714844l-53.167969-30.695313c4.382813-6.800781 9.246094-13.234375 14.535157-19.3125zm0 221.699218-7.320312 4.222657c-7.054688-4.855469-13.726563-10.273438-19.992188-16.167969l27.3125-15.769531zm-79.441406-120.410156 79.441406-45.863281v26.679687l-75.144531 45.625c-2.121094-8.671874-3.574219-17.503906-4.296875-26.441406zm-48.558594 93.753906v12.710938c0 4.40625-3.59375 8-8 8s-8-3.59375-8-8c0-12.023438 6.382812-23.375 16.664062-29.617188l127.335938-77.3125v23.355469zm128-52.570312v33.042969l-38.785156 22.390625c-6.511719-7.472656-12.382813-15.585938-17.550782-24.25zm56 110.144531v-292.863281h-16v288.855469c-8.238281-2.472657-16.265625-5.542969-24-9.222657v-303.191406c7.71875-3.679687 15.695312-6.882812 24-9.371094v16.929688h16v-20.855469c7.816406-1.511719 15.847656-2.351562 24-2.738281v287.59375h16v-287.625c8.105469.386719 16.136719 1.160156 24 2.679688v329.800781c-2.945312.570312-5.953125.960937-8.953125 1.367187-8.808594-3.550781-15.046875-12.160156-15.046875-22.222656v-8h-16v8c0 9.03125 3.128906 17.289062 8.199219 23.992188-.070313 0-.136719.007812-.199219.007812-10.847656 0-21.550781-1.089844-32-3.136719zm190.832031-219.617187-15.71875 9.074218 8 13.855469 12.246094-7.070312c1.976563 8.328125 3.34375 16.804687 4.03125 25.375l-79.390625 45.847656v-27.710937l50.496094-29.152344-8-13.855469-42.496094 24.535156v-28.855469l61.425781-34c3.644531 7.09375 6.8125 14.421876 9.40625 21.957032zm64.398438-81.109375-135.230469 74.863281v-32.777344l118.167969-71.75c2.664062-1.617187 5.710937-2.472656 8.832031-2.472656 9.367188 0 17 7.632812 17 17.265625 0 6.183594-3.359375 11.878906-8.769531 14.871094zm0 0"/><path d="m408 480h16v16h-16zm0 0"/></svg>